<?xml version="1.0" encoding="utf-8"?>
<!-- Generator: Adobe Illustrator 24.0.2, SVG Export Plug-In . SVG Version: 6.00 Build 0)  -->
<svg version="1.1" id="Capa_1" xmlns="http://www.w3.org/2000/svg" xmlns:xlink="http://www.w3.org/1999/xlink" x="0px" y="0px"
	 viewBox="0 0 152.7 100.7" style="enable-background:new 0 0 152.7 100.7;" xml:space="preserve">
<style type="text/css">
	.st0{fill:#1A1A1E;}
	.st1{fill:#00FF00;}
	.st2{fill:#EFF1F5;}
	.st3{fill:#676C69;}
</style>
<rect class="st0" width="152.7" height="100.7"/>
<g>
	<path class="st1" d="M12.1,82.4c-0.3,0.1-0.6,0.2-1,0.3c-0.3,0.1-0.7,0.1-1,0.1c-1.1,0-1.9-0.3-2.5-0.9s-0.9-1.4-0.9-2.6
		c0-0.5,0.1-1,0.3-1.5s0.4-0.8,0.7-1.1s0.7-0.6,1.1-0.7c0.4-0.2,0.9-0.3,1.4-0.3c0.4,0,0.7,0,1,0.1s0.6,0.1,0.9,0.2v1.1
		c-0.3-0.2-0.6-0.3-0.9-0.3c-0.3-0.1-0.6-0.1-1-0.1c-0.3,0-0.6,0.1-0.9,0.2c-0.3,0.1-0.5,0.3-0.7,0.5s-0.4,0.5-0.5,0.8
		S8,78.8,8,79.2c0,0.8,0.2,1.5,0.6,1.9c0.4,0.4,1,0.6,1.7,0.6c0.3,0,0.6,0,0.9-0.1s0.6-0.2,0.9-0.3V82.4z"/>
	<path class="st1" d="M18.9,82.6l0-0.9c-0.4,0.4-0.8,0.6-1.1,0.8s-0.8,0.2-1.2,0.2c-0.4,0-0.7,0-1-0.2s-0.5-0.2-0.7-0.4
		c-0.2-0.2-0.3-0.4-0.4-0.6s-0.1-0.5-0.1-0.8c0-0.7,0.3-1.2,0.8-1.6c0.5-0.4,1.3-0.6,2.3-0.6h1.4V78c0-0.4-0.1-0.7-0.4-1
		c-0.3-0.2-0.7-0.4-1.2-0.4c-0.4,0-0.8,0-1.1,0.1s-0.8,0.2-1.2,0.4v-1.1c0.2-0.1,0.3-0.1,0.5-0.2c0.2-0.1,0.4-0.1,0.6-0.1
		s0.4-0.1,0.6-0.1c0.2,0,0.4,0,0.7,0c0.4,0,0.8,0,1.1,0.1s0.6,0.2,0.8,0.4s0.4,0.4,0.5,0.7s0.2,0.6,0.2,1v4.7H18.9z M18.7,79.5h-1.5
		c-0.3,0-0.6,0-0.8,0.1s-0.4,0.1-0.5,0.3s-0.2,0.2-0.3,0.4c-0.1,0.2-0.1,0.3-0.1,0.5c0,0.1,0,0.3,0.1,0.4c0,0.1,0.1,0.2,0.2,0.3
		c0.1,0.1,0.2,0.2,0.4,0.2s0.3,0.1,0.5,0.1c0.3,0,0.6-0.1,0.9-0.2c0.4-0.2,0.7-0.4,1.1-0.8V79.5z"/>
	<path class="st1" d="M22.2,75.8h1.1l0,1.1c0.2-0.2,0.4-0.4,0.6-0.6c0.2-0.2,0.4-0.3,0.6-0.4s0.4-0.2,0.6-0.2c0.2,0,0.4-0.1,0.6-0.1
		c0.7,0,1.2,0.2,1.6,0.6c0.4,0.4,0.5,1,0.5,1.9v4.5h-1.2v-4.4c0-0.5-0.1-0.9-0.3-1.2c-0.2-0.3-0.5-0.4-0.9-0.4c-0.1,0-0.3,0-0.4,0.1
		c-0.1,0-0.3,0.1-0.4,0.2c-0.2,0.1-0.3,0.3-0.5,0.4s-0.4,0.4-0.6,0.7v4.6h-1.2V75.8z"/>
	<path class="st1" d="M35.8,79.2c0,0.5-0.1,1-0.2,1.5c-0.2,0.4-0.4,0.8-0.6,1.1c-0.3,0.3-0.6,0.6-1,0.7c-0.4,0.2-0.9,0.3-1.4,0.3
		c-0.5,0-0.9-0.1-1.3-0.2c-0.4-0.2-0.7-0.4-1-0.7s-0.5-0.7-0.6-1.1s-0.2-0.9-0.2-1.5c0-0.5,0.1-1,0.2-1.5c0.2-0.4,0.4-0.8,0.6-1.1
		c0.3-0.3,0.6-0.6,1-0.7c0.4-0.2,0.9-0.3,1.4-0.3c0.5,0,0.9,0.1,1.3,0.2c0.4,0.2,0.7,0.4,1,0.7c0.3,0.3,0.5,0.7,0.6,1.1
		S35.8,78.6,35.8,79.2z M34.6,79.2c0-0.4,0-0.8-0.1-1.1c-0.1-0.3-0.2-0.6-0.4-0.8c-0.2-0.2-0.4-0.4-0.6-0.5
		c-0.2-0.1-0.5-0.2-0.8-0.2c-0.4,0-0.7,0.1-0.9,0.2c-0.3,0.1-0.5,0.3-0.6,0.6s-0.3,0.5-0.4,0.8c-0.1,0.3-0.1,0.6-0.1,1
		c0,0.4,0,0.8,0.1,1.1s0.2,0.6,0.4,0.8c0.2,0.2,0.4,0.4,0.6,0.5c0.2,0.1,0.5,0.2,0.8,0.2c0.4,0,0.7-0.1,0.9-0.2
		c0.3-0.1,0.5-0.3,0.6-0.6s0.3-0.5,0.4-0.8C34.6,79.9,34.6,79.6,34.6,79.2z"/>
	<path class="st1" d="M37.2,79.4c0-0.6,0.1-1.1,0.2-1.6c0.2-0.5,0.4-0.8,0.7-1.1c0.3-0.3,0.6-0.5,1.1-0.7c0.4-0.2,0.9-0.2,1.4-0.2
		c0.2,0,0.4,0,0.6,0s0.4,0.1,0.6,0.1V73H43v9.7H42l0-1.3c-0.3,0.5-0.7,0.8-1.1,1.1s-0.8,0.3-1.3,0.3c-0.4,0-0.7-0.1-1-0.2
		s-0.5-0.4-0.7-0.7c-0.2-0.3-0.3-0.7-0.4-1.1S37.2,79.9,37.2,79.4z M38.4,79.3c0,0.8,0.1,1.4,0.4,1.9c0.2,0.4,0.6,0.6,1,0.6
		c0.3,0,0.6-0.1,1-0.4s0.7-0.7,1.1-1.2V77c-0.2-0.1-0.4-0.2-0.6-0.2c-0.2,0-0.5-0.1-0.7-0.1c-0.6,0-1.2,0.2-1.5,0.6
		S38.4,78.4,38.4,79.3z"/>
	<path class="st1" d="M51,78.8c0,0.2,0,0.3,0,0.4s0,0.2,0,0.3h-4.8c0,0.7,0.2,1.2,0.6,1.6c0.4,0.4,1,0.6,1.7,0.6c0.2,0,0.4,0,0.6,0
		c0.2,0,0.4,0,0.6-0.1s0.4-0.1,0.5-0.1c0.2,0,0.3-0.1,0.5-0.1v1c-0.3,0.1-0.7,0.2-1.1,0.2c-0.4,0.1-0.8,0.1-1.3,0.1
		c-0.6,0-1.1-0.1-1.5-0.2s-0.8-0.4-1-0.7c-0.3-0.3-0.5-0.7-0.6-1.1c-0.1-0.4-0.2-0.9-0.2-1.5c0-0.5,0.1-0.9,0.2-1.4
		c0.1-0.4,0.3-0.8,0.6-1.1c0.3-0.3,0.6-0.6,1-0.8s0.8-0.3,1.3-0.3c0.5,0,0.9,0.1,1.3,0.2s0.7,0.4,0.9,0.6c0.3,0.3,0.4,0.6,0.6,1
		C51,77.9,51,78.4,51,78.8z M49.8,78.7c0-0.3,0-0.6-0.1-0.8c-0.1-0.3-0.2-0.5-0.3-0.7s-0.3-0.3-0.6-0.4c-0.2-0.1-0.5-0.2-0.8-0.2
		c-0.3,0-0.5,0-0.7,0.2s-0.4,0.2-0.6,0.4s-0.3,0.4-0.4,0.7s-0.2,0.5-0.2,0.8H49.8z"/>
	<path class="st1" d="M55.3,74h-2v-1h3.2v8.7h2v1H53v-1h2.3V74z"/>
	<path class="st1" d="M65,82.6l0-0.9c-0.4,0.4-0.8,0.6-1.1,0.8s-0.8,0.2-1.2,0.2c-0.4,0-0.7,0-1-0.2s-0.5-0.2-0.7-0.4
		c-0.2-0.2-0.3-0.4-0.4-0.6s-0.1-0.5-0.1-0.8c0-0.7,0.3-1.2,0.8-1.6c0.5-0.4,1.3-0.6,2.3-0.6h1.4V78c0-0.4-0.1-0.7-0.4-1
		c-0.3-0.2-0.7-0.4-1.2-0.4c-0.4,0-0.8,0-1.1,0.1S61.4,77,61,77.2v-1.1c0.2-0.1,0.3-0.1,0.5-0.2c0.2-0.1,0.4-0.1,0.6-0.1
		s0.4-0.1,0.6-0.1c0.2,0,0.4,0,0.7,0c0.4,0,0.8,0,1.1,0.1s0.6,0.2,0.8,0.4s0.4,0.4,0.5,0.7s0.2,0.6,0.2,1v4.7H65z M64.9,79.5h-1.5
		c-0.3,0-0.6,0-0.8,0.1s-0.4,0.1-0.5,0.3s-0.2,0.2-0.3,0.4c-0.1,0.2-0.1,0.3-0.1,0.5c0,0.1,0,0.3,0.1,0.4c0,0.1,0.1,0.2,0.2,0.3
		c0.1,0.1,0.2,0.2,0.4,0.2s0.3,0.1,0.5,0.1c0.3,0,0.6-0.1,0.9-0.2c0.4-0.2,0.7-0.4,1.1-0.8V79.5z"/>
	<path class="st1" d="M73.7,82.4c-0.3,0.1-0.6,0.2-1,0.3c-0.3,0.1-0.7,0.1-1,0.1c-1.1,0-1.9-0.3-2.5-0.9s-0.9-1.4-0.9-2.6
		c0-0.5,0.1-1,0.3-1.5s0.4-0.8,0.7-1.1s0.7-0.6,1.1-0.7c0.4-0.2,0.9-0.3,1.4-0.3c0.4,0,0.7,0,1,0.1c0.3,0,0.6,0.1,0.9,0.2v1.1
		c-0.3-0.2-0.6-0.3-0.9-0.3c-0.3-0.1-0.6-0.1-1-0.1c-0.3,0-0.6,0.1-0.9,0.2c-0.3,0.1-0.5,0.3-0.7,0.5c-0.2,0.2-0.4,0.5-0.5,0.8
		s-0.2,0.7-0.2,1.1c0,0.8,0.2,1.5,0.6,1.9c0.4,0.4,1,0.6,1.7,0.6c0.3,0,0.6,0,0.9-0.1s0.6-0.2,0.9-0.3V82.4z"/>
	<path class="st1" d="M81.5,82.6h-1.1l0-1.1c-0.2,0.2-0.4,0.4-0.6,0.6c-0.2,0.2-0.4,0.3-0.5,0.4s-0.4,0.2-0.5,0.2
		c-0.2,0-0.4,0.1-0.6,0.1c-0.7,0-1.2-0.2-1.6-0.6s-0.5-1-0.5-1.9v-4.5h1.2v4.4c0,1.1,0.4,1.6,1.2,1.6c0.1,0,0.3,0,0.4-0.1
		c0.1,0,0.3-0.1,0.4-0.2c0.2-0.1,0.3-0.3,0.5-0.4c0.2-0.2,0.4-0.4,0.6-0.7v-4.6h1.2V82.6z"/>
	<path class="st1" d="M88.1,82.6l0-0.9c-0.4,0.4-0.8,0.6-1.1,0.8c-0.4,0.2-0.8,0.2-1.2,0.2c-0.4,0-0.7,0-1-0.2s-0.5-0.2-0.7-0.4
		c-0.2-0.2-0.3-0.4-0.4-0.6c-0.1-0.2-0.1-0.5-0.1-0.8c0-0.7,0.3-1.2,0.8-1.6c0.5-0.4,1.3-0.6,2.3-0.6H88V78c0-0.4-0.1-0.7-0.4-1
		c-0.3-0.2-0.7-0.4-1.2-0.4c-0.4,0-0.8,0-1.1,0.1c-0.4,0.1-0.8,0.2-1.2,0.4v-1.1c0.2-0.1,0.3-0.1,0.5-0.2c0.2-0.1,0.4-0.1,0.6-0.1
		s0.4-0.1,0.6-0.1c0.2,0,0.4,0,0.7,0c0.4,0,0.8,0,1.1,0.1s0.6,0.2,0.8,0.4c0.2,0.2,0.4,0.4,0.5,0.7s0.2,0.6,0.2,1v4.7H88.1z
		 M88,79.5h-1.5c-0.3,0-0.6,0-0.8,0.1s-0.4,0.1-0.5,0.3s-0.2,0.2-0.3,0.4c-0.1,0.2-0.1,0.3-0.1,0.5c0,0.1,0,0.3,0.1,0.4
		c0,0.1,0.1,0.2,0.2,0.3c0.1,0.1,0.2,0.2,0.4,0.2s0.3,0.1,0.5,0.1c0.3,0,0.6-0.1,0.9-0.2c0.4-0.2,0.7-0.4,1.1-0.8V79.5z"/>
	<path class="st1" d="M91.1,79.4c0-0.6,0.1-1.1,0.2-1.6c0.2-0.5,0.4-0.8,0.7-1.1c0.3-0.3,0.6-0.5,1.1-0.7c0.4-0.2,0.9-0.2,1.4-0.2
		c0.2,0,0.4,0,0.6,0c0.2,0,0.4,0.1,0.6,0.1V73h1.2v9.7h-1.1l0-1.3c-0.3,0.5-0.7,0.8-1.1,1.1s-0.8,0.3-1.3,0.3c-0.4,0-0.7-0.1-1-0.2
		c-0.3-0.2-0.5-0.4-0.7-0.7c-0.2-0.3-0.3-0.7-0.4-1.1S91.1,79.9,91.1,79.4z M92.3,79.3c0,0.8,0.1,1.4,0.4,1.9c0.2,0.4,0.6,0.6,1,0.6
		c0.3,0,0.6-0.1,1-0.4c0.3-0.3,0.7-0.7,1.1-1.2V77c-0.2-0.1-0.4-0.2-0.6-0.2c-0.2,0-0.5-0.1-0.7-0.1c-0.6,0-1.2,0.2-1.5,0.6
		C92.5,77.7,92.3,78.4,92.3,79.3z"/>
	<path class="st1" d="M99.4,75.8h1.1l0,1.3c0.4-0.5,0.8-0.8,1.2-1.1c0.4-0.2,0.8-0.3,1.2-0.3c0.7,0,1.3,0.2,1.6,0.7
		c0.4,0.5,0.5,1.1,0.5,2.1h-1.2c0-0.6-0.1-1-0.3-1.3c-0.2-0.3-0.5-0.4-0.8-0.4c-0.2,0-0.3,0-0.5,0.1c-0.2,0.1-0.3,0.1-0.5,0.3
		c-0.2,0.1-0.4,0.3-0.5,0.5s-0.4,0.4-0.6,0.7v4.4h-1.2V75.8z"/>
	<path class="st1" d="M111.2,82.6l0-0.9c-0.4,0.4-0.8,0.6-1.1,0.8c-0.4,0.2-0.8,0.2-1.2,0.2c-0.4,0-0.7,0-1-0.2s-0.5-0.2-0.7-0.4
		c-0.2-0.2-0.3-0.4-0.4-0.6c-0.1-0.2-0.1-0.5-0.1-0.8c0-0.7,0.3-1.2,0.8-1.6c0.5-0.4,1.3-0.6,2.3-0.6h1.4V78c0-0.4-0.1-0.7-0.4-1
		c-0.3-0.2-0.7-0.4-1.2-0.4c-0.4,0-0.8,0-1.1,0.1c-0.4,0.1-0.8,0.2-1.2,0.4v-1.1c0.2-0.1,0.3-0.1,0.5-0.2c0.2-0.1,0.4-0.1,0.6-0.1
		s0.4-0.1,0.6-0.1c0.2,0,0.4,0,0.7,0c0.4,0,0.8,0,1.1,0.1s0.6,0.2,0.8,0.4c0.2,0.2,0.4,0.4,0.5,0.7s0.2,0.6,0.2,1v4.7H111.2z
		 M111.1,79.5h-1.5c-0.3,0-0.6,0-0.8,0.1s-0.4,0.1-0.5,0.3s-0.2,0.2-0.3,0.4c-0.1,0.2-0.1,0.3-0.1,0.5c0,0.1,0,0.3,0.1,0.4
		c0,0.1,0.1,0.2,0.2,0.3c0.1,0.1,0.2,0.2,0.4,0.2s0.3,0.1,0.5,0.1c0.3,0,0.6-0.1,0.9-0.2c0.4-0.2,0.7-0.4,1.1-0.8V79.5z"/>
	<path class="st1" d="M118.6,85.5c-2.1-1.9-3.2-4.1-3.2-6.5c0-0.6,0.1-1.1,0.2-1.7c0.1-0.5,0.3-1.1,0.5-1.7c0.2-0.6,0.6-1.1,1-1.7
		c0.4-0.6,0.9-1.1,1.5-1.6l0.7,0.7c-1.8,1.7-2.7,3.7-2.7,5.8c0,1.1,0.2,2.1,0.7,3s1.1,1.9,2,2.8L118.6,85.5z"/>
	<path class="st1" d="M121.9,79.4c0-0.6,0.1-1.1,0.2-1.6c0.2-0.5,0.4-0.8,0.7-1.1c0.3-0.3,0.6-0.5,1.1-0.7c0.4-0.2,0.9-0.2,1.4-0.2
		c0.2,0,0.4,0,0.6,0c0.2,0,0.4,0.1,0.6,0.1V73h1.2v9.7h-1.1l0-1.3c-0.3,0.5-0.7,0.8-1.1,1.1s-0.8,0.3-1.3,0.3c-0.4,0-0.7-0.1-1-0.2
		c-0.3-0.2-0.5-0.4-0.7-0.7c-0.2-0.3-0.3-0.7-0.4-1.1S121.9,79.9,121.9,79.4z M123.1,79.3c0,0.8,0.1,1.4,0.4,1.9
		c0.2,0.4,0.6,0.6,1,0.6c0.3,0,0.6-0.1,1-0.4c0.3-0.3,0.7-0.7,1.1-1.2V77c-0.2-0.1-0.4-0.2-0.6-0.2c-0.2,0-0.5-0.1-0.7-0.1
		c-0.6,0-1.2,0.2-1.5,0.6C123.3,77.7,123.1,78.4,123.1,79.3z"/>
	<path class="st1" d="M135.7,78.8c0,0.2,0,0.3,0,0.4s0,0.2,0,0.3h-4.8c0,0.7,0.2,1.2,0.6,1.6c0.4,0.4,1,0.6,1.7,0.6
		c0.2,0,0.4,0,0.6,0c0.2,0,0.4,0,0.6-0.1s0.4-0.1,0.5-0.1c0.2,0,0.3-0.1,0.5-0.1v1c-0.3,0.1-0.7,0.2-1.1,0.2
		c-0.4,0.1-0.8,0.1-1.3,0.1c-0.6,0-1.1-0.1-1.5-0.2s-0.8-0.4-1-0.7c-0.3-0.3-0.5-0.7-0.6-1.1c-0.1-0.4-0.2-0.9-0.2-1.5
		c0-0.5,0.1-0.9,0.2-1.4c0.1-0.4,0.3-0.8,0.6-1.1c0.3-0.3,0.6-0.6,1-0.8s0.8-0.3,1.3-0.3c0.5,0,0.9,0.1,1.3,0.2s0.7,0.4,0.9,0.6
		c0.3,0.3,0.4,0.6,0.6,1C135.6,77.9,135.7,78.4,135.7,78.8z M134.5,78.7c0-0.3,0-0.6-0.1-0.8c-0.1-0.3-0.2-0.5-0.3-0.7
		c-0.2-0.2-0.3-0.3-0.6-0.4c-0.2-0.1-0.5-0.2-0.8-0.2c-0.3,0-0.5,0-0.7,0.2s-0.4,0.2-0.6,0.4s-0.3,0.4-0.4,0.7s-0.2,0.5-0.2,0.8
		H134.5z"/>
	<path class="st1" d="M137,75.8h1.4l1.7,4.5l0.4,1.1l0.4-1.1l1.7-4.5h1.3l-2.7,6.9h-1.4L137,75.8z"/>
	<path class="st1" d="M146.7,72.5c2.1,1.9,3.2,4.1,3.2,6.5c0,0.5,0,1-0.2,1.5s-0.3,1.1-0.5,1.6c-0.2,0.6-0.6,1.1-1,1.7
		c-0.4,0.6-0.9,1.1-1.5,1.7l-0.7-0.7c0.9-0.9,1.6-1.8,2-2.8s0.7-2,0.7-3c0-2.2-0.9-4.1-2.6-5.9L146.7,72.5z"/>
</g>
<g>
	<path class="st2" d="M23.7,54.4l-1.9,1.9l-11.7-9.7l11.7-9.7l1.9,1.9l-9.5,7.8L23.7,54.4z"/>
	<path class="st2" d="M43.9,51.3c0,0.6-0.1,1.2-0.3,1.6s-0.5,0.9-0.9,1.3s-0.8,0.7-1.2,1c-0.5,0.3-1,0.5-1.5,0.7
		c-0.5,0.2-1.1,0.3-1.7,0.4c-0.6,0.1-1.1,0.1-1.7,0.1c-1.2,0-2.3-0.1-3.3-0.2c-1-0.1-2-0.3-2.9-0.5v-2.8c1,0.3,2,0.5,3,0.7
		c1,0.2,2,0.2,3,0.2c1.4,0,2.5-0.2,3.2-0.6c0.7-0.4,1-1,1-1.7c0-0.3-0.1-0.6-0.2-0.8c-0.1-0.2-0.3-0.5-0.6-0.7
		c-0.3-0.2-0.7-0.5-1.3-0.7c-0.6-0.2-1.4-0.5-2.5-0.8c-0.8-0.2-1.5-0.5-2.2-0.8s-1.2-0.6-1.7-1c-0.5-0.4-0.9-0.9-1.1-1.4
		c-0.3-0.5-0.4-1.2-0.4-1.9c0-0.5,0.1-1,0.3-1.6c0.2-0.6,0.6-1.1,1.2-1.6s1.3-0.9,2.2-1.2c0.9-0.3,2.1-0.5,3.5-0.5
		c0.7,0,1.4,0,2.3,0.1c0.8,0.1,1.7,0.2,2.6,0.4v2.7c-0.9-0.2-1.8-0.4-2.7-0.5s-1.6-0.2-2.2-0.2c-0.8,0-1.4,0.1-1.9,0.2
		c-0.5,0.1-0.9,0.3-1.2,0.5c-0.3,0.2-0.5,0.4-0.7,0.7c-0.1,0.3-0.2,0.6-0.2,0.9s0.1,0.6,0.2,0.9c0.1,0.3,0.3,0.5,0.7,0.7
		c0.3,0.2,0.8,0.5,1.4,0.7c0.6,0.2,1.4,0.5,2.3,0.8c1,0.3,1.9,0.6,2.6,0.9c0.7,0.3,1.3,0.7,1.7,1.1s0.8,0.9,0.9,1.4
		C43.8,50,43.9,50.6,43.9,51.3z"/>
	<path class="st2" d="M55.6,41.1h-5.2v-2.5h8.2v14.9h5.2V56h-14v-2.5h5.7V41.1z M56.6,31.3c0.3,0,0.6,0.1,0.9,0.2s0.5,0.3,0.8,0.5
		c0.2,0.2,0.4,0.5,0.5,0.8c0.1,0.3,0.2,0.6,0.2,0.9c0,0.3-0.1,0.6-0.2,0.9s-0.3,0.5-0.5,0.8c-0.2,0.2-0.5,0.4-0.8,0.5
		C57.3,36,56.9,36,56.6,36S56,36,55.7,35.9c-0.3-0.1-0.5-0.3-0.8-0.5s-0.4-0.5-0.5-0.8c-0.1-0.3-0.2-0.6-0.2-0.9
		c0-0.3,0.1-0.6,0.2-0.9c0.1-0.3,0.3-0.5,0.5-0.8s0.5-0.4,0.8-0.5C56,31.4,56.3,31.3,56.6,31.3z"/>
	<path class="st2" d="M83.2,55.8c-0.7,0.2-1.4,0.3-2.1,0.4s-1.5,0.1-2.2,0.1c-2.2,0-3.8-0.5-4.9-1.5c-1.1-1-1.6-2.5-1.6-4.6v-9.1
		h-4.9v-2.5h4.9v-4.8l3-0.8v5.6h7.8v2.5h-7.8V50c0,1.2,0.3,2.2,1,2.8c0.7,0.6,1.6,0.9,2.9,0.9c0.6,0,1.2,0,1.8-0.1
		c0.7-0.1,1.3-0.2,2.1-0.4V55.8z"/>
	<path class="st2" d="M103.4,46.4c0,0.4,0,0.8,0,1.1s0,0.6-0.1,0.8H91.1c0,1.8,0.5,3.1,1.5,4.1c1,1,2.4,1.4,4.3,1.4
		c0.5,0,1,0,1.5-0.1c0.5,0,1-0.1,1.5-0.2c0.5-0.1,0.9-0.1,1.4-0.2c0.4-0.1,0.8-0.2,1.2-0.3v2.5c-0.8,0.2-1.7,0.4-2.8,0.6
		s-2.1,0.2-3.2,0.2c-1.5,0-2.8-0.2-3.9-0.6c-1.1-0.4-2-1-2.6-1.8c-0.7-0.8-1.2-1.7-1.5-2.8c-0.3-1.1-0.5-2.4-0.5-3.8
		c0-1.2,0.2-2.4,0.5-3.5s0.9-2.1,1.5-2.9c0.7-0.8,1.5-1.5,2.5-2c1-0.5,2.1-0.7,3.3-0.7c1.2,0,2.3,0.2,3.2,0.6
		c0.9,0.4,1.7,0.9,2.4,1.6c0.6,0.7,1.1,1.5,1.5,2.5C103.2,44,103.4,45.1,103.4,46.4z M100.3,46c0-0.8,0-1.5-0.2-2.1
		c-0.2-0.6-0.5-1.2-0.9-1.7s-0.9-0.8-1.4-1.1c-0.6-0.3-1.2-0.4-2-0.4c-0.7,0-1.3,0.1-1.8,0.4c-0.5,0.3-1,0.6-1.4,1.1
		c-0.4,0.5-0.7,1-1,1.7c-0.2,0.6-0.4,1.4-0.5,2.1H100.3z"/>
	<path class="st2" d="M123,59.7h-2.9l-11.9-28.2h2.9L123,59.7z"/>
	<path class="st2" d="M128.6,38.8l1.9-1.9l11.7,9.7l-11.7,9.7l-1.9-1.9l9.5-7.8L128.6,38.8z"/>
</g>
<g>
	<path class="st3" d="M11.1,12.2H9.6l-0.3,2.5h-1l0.3-2.5H6.8l-0.3,2.5h-1l0.3-2.5H4.3v-0.9h1.5l0.2-2.4H4.7V8h1.5l0.2-2.3h1L7.2,8
		H9l0.2-2.3h1L10,8h1.5v0.9H9.9l-0.2,2.4h1.4V12.2z M8.6,11.3l0.2-2.4H7.1l-0.2,2.4H8.6z"/>
	<path class="st3" d="M15.6,13c0.1,0,0.2,0,0.3,0.1c0.1,0,0.2,0.1,0.3,0.2s0.1,0.2,0.2,0.3c0,0.1,0.1,0.2,0.1,0.4s0,0.2-0.1,0.3
		s-0.1,0.2-0.2,0.3c-0.1,0.1-0.2,0.1-0.3,0.2c-0.1,0-0.2,0.1-0.3,0.1c-0.1,0-0.2,0-0.4-0.1c-0.1,0-0.2-0.1-0.3-0.2
		c-0.1-0.1-0.1-0.2-0.2-0.3s-0.1-0.2-0.1-0.3s0-0.2,0.1-0.4c0-0.1,0.1-0.2,0.2-0.3s0.2-0.1,0.3-0.2C15.3,13,15.4,13,15.6,13z
		 M16.3,5l-0.2,7h-1.1l-0.2-7H16.3z"/>
	<path class="st3" d="M26,5l-4.7,11.1h-1.1L24.9,5H26z"/>
	<path class="st3" d="M34.1,11.1c0,0.6-0.1,1.1-0.2,1.5c-0.2,0.4-0.4,0.8-0.7,1.1c-0.3,0.3-0.6,0.6-1.1,0.7
		c-0.4,0.2-0.9,0.3-1.4,0.3c-0.4,0-0.8,0-1.2-0.1s-0.8-0.2-1.3-0.4V5h1.2v2.7l-0.1,1.3c0.3-0.5,0.7-0.8,1.1-1
		c0.4-0.2,0.8-0.3,1.3-0.3c0.4,0,0.7,0.1,1,0.2s0.5,0.4,0.7,0.7c0.2,0.3,0.4,0.7,0.5,1.1C34,10.1,34.1,10.6,34.1,11.1z M32.9,11.2
		c0-0.4,0-0.7-0.1-1s-0.1-0.6-0.2-0.8S32.3,9,32.1,8.9c-0.2-0.1-0.4-0.2-0.6-0.2c-0.2,0-0.3,0-0.5,0.1c-0.2,0-0.3,0.1-0.5,0.2
		c-0.2,0.1-0.3,0.3-0.5,0.4c-0.2,0.2-0.4,0.4-0.6,0.7v3.3c0.2,0.1,0.5,0.2,0.7,0.2c0.2,0.1,0.5,0.1,0.7,0.1c0.3,0,0.5,0,0.8-0.1
		s0.5-0.2,0.7-0.4c0.2-0.2,0.3-0.5,0.5-0.8C32.8,12.1,32.9,11.7,32.9,11.2z"/>
	<path class="st3" d="M38.3,8.8h-2v-1h3.2v5.9h2v1H36v-1h2.3V8.8z M38.7,4.9c0.1,0,0.3,0,0.4,0.1c0.1,0,0.2,0.1,0.3,0.2
		s0.2,0.2,0.2,0.3c0,0.1,0.1,0.2,0.1,0.4c0,0.1,0,0.2-0.1,0.4s-0.1,0.2-0.2,0.3s-0.2,0.2-0.3,0.2c-0.1,0-0.2,0.1-0.4,0.1
		s-0.3,0-0.4-0.1c-0.1,0-0.2-0.1-0.3-0.2s-0.2-0.2-0.2-0.3S37.7,6,37.7,5.9c0-0.1,0-0.3,0.1-0.4c0-0.1,0.1-0.2,0.2-0.3
		S38.2,5,38.3,5C38.4,4.9,38.5,4.9,38.7,4.9z"/>
	<path class="st3" d="M43.6,7.8h1.1l0,1.1c0.2-0.2,0.4-0.4,0.6-0.6c0.2-0.2,0.4-0.3,0.6-0.4s0.4-0.2,0.6-0.2c0.2,0,0.4-0.1,0.6-0.1
		c0.7,0,1.2,0.2,1.6,0.6c0.4,0.4,0.5,1,0.5,1.9v4.5H48v-4.4c0-0.5-0.1-0.9-0.3-1.2c-0.2-0.3-0.5-0.4-0.9-0.4c-0.1,0-0.3,0-0.4,0.1
		c-0.1,0-0.3,0.1-0.4,0.2c-0.2,0.1-0.3,0.3-0.5,0.4s-0.4,0.4-0.6,0.7v4.6h-1.2V7.8z"/>
	<path class="st3" d="M56.8,5l-4.7,11.1H51L55.7,5H56.8z"/>
	<path class="st3" d="M64.9,11.1c0,0.6-0.1,1.1-0.2,1.5c-0.2,0.4-0.4,0.8-0.7,1.1c-0.3,0.3-0.6,0.6-1.1,0.7
		c-0.4,0.2-0.9,0.3-1.4,0.3c-0.4,0-0.8,0-1.2-0.1s-0.8-0.2-1.3-0.4V5h1.2v2.7l-0.1,1.3c0.3-0.5,0.7-0.8,1.1-1
		c0.4-0.2,0.8-0.3,1.3-0.3c0.4,0,0.7,0.1,1,0.2s0.5,0.4,0.7,0.7c0.2,0.3,0.4,0.7,0.5,1.1C64.8,10.1,64.9,10.6,64.9,11.1z M63.7,11.2
		c0-0.4,0-0.7-0.1-1s-0.1-0.6-0.2-0.8S63.1,9,62.9,8.9c-0.2-0.1-0.4-0.2-0.6-0.2c-0.2,0-0.3,0-0.5,0.1c-0.2,0-0.3,0.1-0.5,0.2
		c-0.2,0.1-0.3,0.3-0.5,0.4c-0.2,0.2-0.4,0.4-0.6,0.7v3.3c0.2,0.1,0.5,0.2,0.7,0.2c0.2,0.1,0.5,0.1,0.7,0.1c0.3,0,0.5,0,0.8-0.1
		s0.5-0.2,0.7-0.4c0.2-0.2,0.3-0.5,0.5-0.8C63.6,12.1,63.7,11.7,63.7,11.2z"/>
	<path class="st3" d="M71.1,14.7l0-0.9c-0.4,0.4-0.8,0.6-1.1,0.8c-0.4,0.2-0.8,0.2-1.2,0.2c-0.4,0-0.7,0-1-0.2s-0.5-0.2-0.7-0.4
		c-0.2-0.2-0.3-0.4-0.4-0.6s-0.1-0.5-0.1-0.8c0-0.7,0.3-1.2,0.8-1.6c0.5-0.4,1.3-0.6,2.3-0.6H71V10c0-0.4-0.1-0.7-0.4-1
		c-0.3-0.2-0.7-0.4-1.2-0.4c-0.4,0-0.8,0-1.1,0.1S67.5,9,67.1,9.2V8.1C67.3,8.1,67.4,8,67.6,8c0.2-0.1,0.4-0.1,0.6-0.1
		s0.4-0.1,0.6-0.1c0.2,0,0.4,0,0.7,0c0.4,0,0.8,0,1.1,0.1C71,7.9,71.2,8,71.5,8.2c0.2,0.2,0.4,0.4,0.5,0.7s0.2,0.6,0.2,1v4.7H71.1z
		 M71,11.5h-1.5c-0.3,0-0.6,0-0.8,0.1c-0.2,0.1-0.4,0.1-0.5,0.3s-0.2,0.2-0.3,0.4c-0.1,0.2-0.1,0.3-0.1,0.5c0,0.1,0,0.3,0.1,0.4
		c0,0.1,0.1,0.2,0.2,0.3c0.1,0.1,0.2,0.2,0.4,0.2s0.3,0.1,0.5,0.1c0.3,0,0.6-0.1,0.9-0.2c0.4-0.2,0.7-0.4,1.1-0.8V11.5z"/>
	<path class="st3" d="M79.8,12.8c0,0.2,0,0.5-0.1,0.6s-0.2,0.4-0.3,0.5c-0.1,0.1-0.3,0.3-0.5,0.4s-0.4,0.2-0.6,0.3
		c-0.2,0.1-0.4,0.1-0.7,0.2s-0.4,0-0.7,0c-0.5,0-0.9,0-1.3-0.1c-0.4,0-0.8-0.1-1.1-0.2v-1.1c0.4,0.1,0.8,0.2,1.2,0.3
		s0.8,0.1,1.2,0.1c0.6,0,1-0.1,1.3-0.2s0.4-0.4,0.4-0.7c0-0.1,0-0.2-0.1-0.3c0-0.1-0.1-0.2-0.2-0.3c-0.1-0.1-0.3-0.2-0.5-0.3
		c-0.2-0.1-0.6-0.2-1-0.3c-0.3-0.1-0.6-0.2-0.9-0.3c-0.3-0.1-0.5-0.3-0.7-0.4s-0.3-0.3-0.5-0.6s-0.2-0.5-0.2-0.8
		c0-0.2,0-0.4,0.1-0.6c0.1-0.2,0.2-0.4,0.5-0.6s0.5-0.4,0.9-0.5c0.4-0.1,0.8-0.2,1.4-0.2c0.3,0,0.6,0,0.9,0c0.3,0,0.7,0.1,1,0.2v1.1
		c-0.4-0.1-0.7-0.2-1.1-0.2c-0.3,0-0.6-0.1-0.9-0.1c-0.3,0-0.5,0-0.7,0.1c-0.2,0-0.4,0.1-0.5,0.2C76.1,9,76,9.1,76,9.2
		c-0.1,0.1-0.1,0.2-0.1,0.3s0,0.2,0.1,0.3c0,0.1,0.1,0.2,0.3,0.3c0.1,0.1,0.3,0.2,0.5,0.3c0.2,0.1,0.5,0.2,0.9,0.3
		c0.4,0.1,0.7,0.2,1,0.4c0.3,0.1,0.5,0.3,0.7,0.4s0.3,0.3,0.4,0.5C79.8,12.3,79.8,12.5,79.8,12.8z"/>
	<path class="st3" d="M87.6,14.7h-1.2v-4.4c0-0.5-0.1-0.9-0.3-1.2c-0.2-0.3-0.5-0.4-0.9-0.4c-0.2,0-0.3,0-0.4,0.1
		c-0.1,0-0.3,0.1-0.4,0.2c-0.2,0.1-0.3,0.3-0.5,0.4s-0.4,0.4-0.6,0.7v4.6h-1.2V5h1.2v2.8l0,1.1c0.2-0.2,0.4-0.4,0.6-0.6
		C84,8.2,84.2,8,84.3,7.9c0.2-0.1,0.4-0.2,0.6-0.2s0.4-0.1,0.6-0.1c0.7,0,1.2,0.2,1.6,0.6c0.4,0.4,0.6,1,0.6,1.9V14.7z"/>
</g>
</svg>
