<?xml version="1.0" encoding="utf-8"?>
<!-- Generator: Adobe Illustrator 24.0.2, SVG Export Plug-In . SVG Version: 6.00 Build 0)  -->
<svg version="1.1" id="Capa_1" xmlns="http://www.w3.org/2000/svg" xmlns:xlink="http://www.w3.org/1999/xlink" x="0px" y="0px"
	 viewBox="0 0 152.7 100.7" style="enable-background:new 0 0 152.7 100.7;" xml:space="preserve">
<style type="text/css">
	.st0{clip-path:url(#SVGID_2_);}
	.st1{clip-path:url(#SVGID_4_);}
	.st2{font-family:'MicrosoftYaHei';}
	.st3{font-size:75px;}
</style>
<g>
	<g>
		<defs>
			<rect id="SVGID_1_" y="2.2" width="152.7" height="100.7"/>
		</defs>
		<clipPath id="SVGID_2_">
			<use xlink:href="#SVGID_1_"  style="overflow:visible;"/>
		</clipPath>
		<g class="st0">
			<defs>
				<rect id="SVGID_3_" y="2.2" width="152.7" height="100.7"/>
			</defs>
			<clipPath id="SVGID_4_">
				<use xlink:href="#SVGID_3_"  style="overflow:visible;"/>
			</clipPath>
			<path class="st1" d="M2,2.2C0.9,2.2,0,3,0,4.1v88.3c0,1,0.9,1.9,1.9,1.9H28v-1.7H2c-0.2,0-0.3-0.1-0.3-0.2V4
				c0-0.1,0.1-0.2,0.2-0.2h148.8c0.2,0,0.2,0.1,0.2,0.2v88.3c0,0.1-0.1,0.2-0.2,0.2h-27.4v1.6h27.4c1.1,0,2-0.9,2-1.9V4
				c0-1-0.9-1.9-1.9-1.9H2z"/>
			<path class="st1" d="M35.5,93.9c-0.5,0.3-1.1,0.4-1.8,0.4c-0.9,0-1.7-0.3-2.3-0.9c-0.6-0.6-0.9-1.4-0.9-2.3
				c0-1.1,0.3-1.9,0.9-2.6c0.6-0.7,1.4-1,2.5-1c0.6,0,1.1,0.1,1.5,0.3V89c-0.5-0.3-1-0.5-1.5-0.5c-0.7,0-1.2,0.2-1.6,0.7
				c-0.4,0.5-0.6,1.1-0.6,1.8c0,0.7,0.2,1.3,0.6,1.8c0.4,0.4,0.9,0.6,1.6,0.6c0.6,0,1.1-0.2,1.6-0.6V93.9z"/>
			<path class="st1" d="M37.1,88.2c0.6-0.4,1.4-0.6,2.2-0.6c1.6,0,2.3,0.8,2.3,2.5v4.2h-1.1v-1h0c-0.4,0.8-1.1,1.2-2,1.2
				c-0.6,0-1.1-0.2-1.5-0.5c-0.4-0.3-0.6-0.8-0.6-1.4c0-1.2,0.7-1.9,2.2-2.1l1.9-0.3c0-1.1-0.4-1.6-1.3-1.6c-0.8,0-1.5,0.3-2.1,0.8
				V88.2z M39.1,91.2c-0.5,0.1-0.9,0.2-1.1,0.4c-0.2,0.2-0.3,0.5-0.3,0.8c0,0.3,0.1,0.6,0.3,0.8c0.2,0.2,0.5,0.3,0.9,0.3
				c0.5,0,0.9-0.2,1.2-0.5c0.3-0.4,0.5-0.8,0.5-1.3V91L39.1,91.2z"/>
			<path class="st1" d="M49.1,94.2H48v-3.7c0-1.3-0.5-2-1.5-2c-0.5,0-0.9,0.2-1.2,0.6s-0.5,0.8-0.5,1.4v3.7h-1.1v-6.5h1.1v1.1h0
				c0.5-0.8,1.2-1.2,2.1-1.2c0.7,0,1.3,0.2,1.6,0.7c0.4,0.5,0.6,1.1,0.6,2V94.2z"/>
			<path class="st1" d="M50.6,91c0-1.1,0.3-1.9,0.9-2.5c0.6-0.6,1.4-0.9,2.4-0.9c1,0,1.7,0.3,2.3,0.9c0.6,0.6,0.8,1.4,0.8,2.5
				c0,1-0.3,1.8-0.9,2.5c-0.6,0.6-1.4,0.9-2.4,0.9c-1,0-1.7-0.3-2.3-0.9C50.9,92.8,50.6,92,50.6,91 M51.8,91c0,0.7,0.2,1.3,0.6,1.8
				c0.4,0.4,0.9,0.6,1.5,0.6c0.7,0,1.2-0.2,1.5-0.6c0.3-0.4,0.5-1,0.5-1.8c0-0.8-0.2-1.4-0.5-1.8c-0.3-0.4-0.8-0.6-1.5-0.6
				c-0.6,0-1.2,0.2-1.5,0.7C51.9,89.6,51.8,90.2,51.8,91"/>
			<path class="st1" d="M64.3,94.2h-1.1v-1.1h0c-0.5,0.8-1.2,1.2-2.2,1.2c-0.8,0-1.5-0.3-2-0.9c-0.5-0.6-0.7-1.4-0.7-2.4
				c0-1.1,0.3-1.9,0.8-2.6c0.5-0.6,1.3-1,2.1-1c0.9,0,1.5,0.3,1.9,1h0v-4h1.1V94.2z M63.1,90.4c0-0.5-0.2-1-0.5-1.3
				c-0.3-0.3-0.8-0.5-1.3-0.5c-0.6,0-1.1,0.2-1.4,0.7c-0.4,0.5-0.5,1.1-0.5,1.9c0,0.7,0.2,1.3,0.5,1.7c0.3,0.4,0.8,0.6,1.4,0.6
				c0.6,0,1-0.2,1.4-0.6c0.4-0.4,0.5-0.9,0.5-1.5V90.4z"/>
			<path class="st1" d="M71.6,91.3h-4.5c0,0.7,0.2,1.2,0.6,1.6c0.4,0.4,0.9,0.6,1.5,0.6c0.7,0,1.4-0.2,2-0.7v1
				c-0.6,0.4-1.3,0.6-2.3,0.6c-0.9,0-1.7-0.3-2.2-0.9c-0.5-0.6-0.8-1.4-0.8-2.5c0-1,0.3-1.8,0.9-2.5c0.6-0.6,1.3-1,2.1-1
				c0.8,0,1.5,0.3,2,0.8c0.5,0.5,0.7,1.3,0.7,2.3V91.3z M70.5,90.3c0-0.6-0.1-1-0.4-1.4c-0.3-0.3-0.7-0.5-1.2-0.5
				c-0.5,0-0.9,0.2-1.2,0.5s-0.5,0.8-0.6,1.3H70.5z"/>
			<rect x="73.1" y="84.6" class="st1" width="1.1" height="9.6"/>
			<path class="st1" d="M76.5,88.2c0.6-0.4,1.4-0.6,2.2-0.6c1.6,0,2.3,0.8,2.3,2.5v4.2h-1.1v-1h0c-0.4,0.8-1.1,1.2-2,1.2
				c-0.6,0-1.1-0.2-1.5-0.5c-0.4-0.3-0.6-0.8-0.6-1.4c0-1.2,0.7-1.9,2.2-2.1l1.9-0.3c0-1.1-0.4-1.6-1.3-1.6c-0.8,0-1.5,0.3-2.1,0.8
				V88.2z M78.4,91.2c-0.5,0.1-0.9,0.2-1.1,0.4C77.1,91.8,77,92,77,92.4c0,0.3,0.1,0.6,0.3,0.8c0.2,0.2,0.5,0.3,0.9,0.3
				c0.5,0,0.9-0.2,1.2-0.5c0.3-0.4,0.5-0.8,0.5-1.3V91L78.4,91.2z"/>
			<path class="st1" d="M87.4,93.9c-0.5,0.3-1.1,0.4-1.8,0.4c-0.9,0-1.7-0.3-2.3-0.9c-0.6-0.6-0.9-1.4-0.9-2.3
				c0-1.1,0.3-1.9,0.9-2.6c0.6-0.7,1.4-1,2.5-1c0.6,0,1.1,0.1,1.5,0.3V89c-0.5-0.3-1-0.5-1.5-0.5c-0.7,0-1.2,0.2-1.6,0.7
				c-0.4,0.5-0.6,1.1-0.6,1.8c0,0.7,0.2,1.3,0.6,1.8c0.4,0.4,0.9,0.6,1.6,0.6c0.6,0,1.1-0.2,1.6-0.6V93.9z"/>
			<path class="st1" d="M94.3,94.2h-1.2v-1h0c-0.4,0.8-1.1,1.2-2,1.2c-1.5,0-2.3-0.9-2.3-2.8v-3.9H90v3.7c0,1.3,0.5,2,1.5,2
				c0.5,0,0.9-0.2,1.2-0.6c0.3-0.4,0.5-0.8,0.5-1.4v-3.7h1.2V94.2z"/>
			<path class="st1" d="M96.5,88.2c0.6-0.4,1.4-0.6,2.2-0.6c1.6,0,2.3,0.8,2.3,2.5v4.2H100v-1h0c-0.4,0.8-1.1,1.2-2,1.2
				c-0.6,0-1.1-0.2-1.5-0.5c-0.4-0.3-0.6-0.8-0.6-1.4c0-1.2,0.7-1.9,2.2-2.1l1.9-0.3c0-1.1-0.4-1.6-1.3-1.6c-0.8,0-1.5,0.3-2.1,0.8
				V88.2z M98.4,91.2c-0.5,0.1-0.9,0.2-1.1,0.4C97.1,91.8,97,92,97,92.4c0,0.3,0.1,0.6,0.3,0.8c0.2,0.2,0.5,0.3,0.9,0.3
				c0.5,0,0.9-0.2,1.2-0.5c0.3-0.4,0.5-0.8,0.5-1.3V91L98.4,91.2z"/>
			<path class="st1" d="M108.6,94.2h-1.1v-1.1h0c-0.5,0.8-1.2,1.2-2.2,1.2c-0.8,0-1.5-0.3-2-0.9c-0.5-0.6-0.7-1.4-0.7-2.4
				c0-1.1,0.3-1.9,0.8-2.6c0.5-0.6,1.3-1,2.1-1s1.5,0.3,1.9,1h0v-4h1.1V94.2z M107.5,90.4c0-0.5-0.2-1-0.5-1.3
				c-0.3-0.3-0.8-0.5-1.3-0.5c-0.6,0-1.1,0.2-1.4,0.7c-0.4,0.5-0.5,1.1-0.5,1.9c0,0.7,0.2,1.3,0.5,1.7c0.3,0.4,0.8,0.6,1.4,0.6
				c0.6,0,1-0.2,1.4-0.6c0.4-0.4,0.5-0.9,0.5-1.5V90.4z"/>
			<path class="st1" d="M114.2,88.9c-0.2-0.1-0.5-0.2-0.8-0.2c-0.4,0-0.8,0.2-1.1,0.6s-0.4,1-0.4,1.6v3.3h-1.1v-6.5h1.1v1.3h0
				c0.3-1,0.9-1.4,1.7-1.4c0.3,0,0.5,0,0.6,0.1V88.9z"/>
			<path class="st1" d="M115.4,88.2c0.6-0.4,1.4-0.6,2.2-0.6c1.6,0,2.3,0.8,2.3,2.5v4.2h-1.1v-1h0c-0.4,0.8-1.1,1.2-2,1.2
				c-0.6,0-1.1-0.2-1.5-0.5c-0.4-0.3-0.6-0.8-0.6-1.4c0-1.2,0.7-1.9,2.2-2.1l1.9-0.3c0-1.1-0.4-1.6-1.3-1.6c-0.8,0-1.5,0.3-2.1,0.8
				V88.2z M117.3,91.2c-0.5,0.1-0.9,0.2-1.1,0.4c-0.2,0.2-0.3,0.5-0.3,0.8c0,0.3,0.1,0.6,0.3,0.8c0.2,0.2,0.5,0.3,0.9,0.3
				c0.5,0,0.9-0.2,1.2-0.5c0.3-0.4,0.5-0.8,0.5-1.3V91L117.3,91.2z"/>
			<g class="st1">
				<text transform="matrix(1 0 0 1 26.8657 67.6122)" class="st2 st3">{  }</text>
			</g>
		</g>
	</g>
</g>
</svg>
